<?xml version="1.0" encoding="UTF-8" ?>
<svg version="1.1" width="7" height="7" xmlns="http://www.w3.org/2000/svg" shape-rendering="crispEdges">
<rect x="0" y="0" width="1" height="1" fill="#0C0C0C" />
<rect x="1" y="0" width="1" height="1" fill="#0C0C0C" />
<rect x="2" y="0" width="1" height="1" fill="#0C0C0C" />
<rect x="3" y="0" width="1" height="1" fill="#0C0C0C" />
<rect x="4" y="0" width="1" height="1" fill="#0C0C0C" />
<rect x="5" y="0" width="1" height="1" fill="#0C0C0C" />
<rect x="6" y="0" width="1" height="1" fill="#0C0C0C" />
<rect x="0" y="3" width="1" height="1" fill="#0C0C0C" />
<rect x="1" y="3" width="1" height="1" fill="#0C0C0C" />
<rect x="2" y="3" width="1" height="1" fill="#0C0C0C" />
<rect x="3" y="3" width="1" height="1" fill="#0C0C0C" />
<rect x="4" y="3" width="1" height="1" fill="#0C0C0C" />
<rect x="5" y="3" width="1" height="1" fill="#0C0C0C" />
<rect x="6" y="3" width="1" height="1" fill="#0C0C0C" />
<rect x="0" y="6" width="1" height="1" fill="#0C0C0C" />
<rect x="1" y="6" width="1" height="1" fill="#0C0C0C" />
<rect x="2" y="6" width="1" height="1" fill="#0C0C0C" />
<rect x="3" y="6" width="1" height="1" fill="#0C0C0C" />
<rect x="4" y="6" width="1" height="1" fill="#0C0C0C" />
<rect x="5" y="6" width="1" height="1" fill="#0C0C0C" />
<rect x="6" y="6" width="1" height="1" fill="#0C0C0C" />
</svg>